<svg xmlns="http://www.w3.org/2000/svg" width="830" height="504" viewBox="0 0 830 504" role="img" aria-labelledby="aiprofileSummaryTitle aiprofileSummaryDesc">
<title id="aiprofileSummaryTitle">AI Collaboration Summary — All time</title>
<desc id="aiprofileSummaryDesc">54 AI-attributed commits, 61 AI actor presences across 14 active AI days (author dates), 3 AI providers. Generated 2026-07-14.</desc>
<rect x="0.5" y="0.5" width="829" height="503" rx="8" fill="#0d1117" stroke="#3d444d" stroke-width="1"/>
<rect x="24" y="24" width="16" height="16" rx="3" fill="#0d1117" stroke="#4493f8" stroke-width="1"/>
<rect x="29" y="29" width="6" height="6" rx="1" fill="#4493f8"/>
<text x="48" y="36" font-family="-apple-system, 'Segoe UI', Ubuntu, Helvetica, Arial, sans-serif" font-size="16" font-weight="600" fill="#f0f6fc" text-anchor="start">AI Collaboration Summary</text>
<text x="806" y="36" font-family="-apple-system, 'Segoe UI', Ubuntu, Helvetica, Arial, sans-serif" font-size="12" font-weight="400" fill="#9198a1" text-anchor="end">All time</text>
<line x1="24" y1="56" x2="806" y2="56" stroke="#3d444d"/>
<text x="24" y="112" font-family="-apple-system, 'Segoe UI', Ubuntu, Helvetica, Arial, sans-serif" font-size="38" font-weight="700" fill="#4493f8" text-anchor="start">54</text>
<text x="24" y="140" font-family="-apple-system, 'Segoe UI', Ubuntu, Helvetica, Arial, sans-serif" font-size="12" font-weight="400" fill="#9198a1" text-anchor="start">AI-attributed commits</text>
<text x="24" y="160" font-family="-apple-system, 'Segoe UI', Ubuntu, Helvetica, Arial, sans-serif" font-size="12" font-weight="600" fill="#f0f6fc" text-anchor="start">90% of 60 unique commits scanned</text>
<rect x="24" y="172" width="360" height="7" rx="2" fill="#21262d"/>
<rect x="24" y="172" width="324" height="7" rx="2" fill="#4493f8"/>
<text x="512" y="88" font-family="-apple-system, 'Segoe UI', Ubuntu, Helvetica, Arial, sans-serif" font-size="12" font-weight="400" fill="#9198a1" text-anchor="start">AI actor presences</text>
<text x="806" y="88" font-family="-apple-system, 'Segoe UI', Ubuntu, Helvetica, Arial, sans-serif" font-size="13" font-weight="600" fill="#f0f6fc" text-anchor="end">61</text>
<text x="512" y="112" font-family="-apple-system, 'Segoe UI', Ubuntu, Helvetica, Arial, sans-serif" font-size="12" font-weight="400" fill="#9198a1" text-anchor="start">Active AI days (author dates)</text>
<text x="806" y="112" font-family="-apple-system, 'Segoe UI', Ubuntu, Helvetica, Arial, sans-serif" font-size="13" font-weight="600" fill="#f0f6fc" text-anchor="end">14</text>
<text x="512" y="136" font-family="-apple-system, 'Segoe UI', Ubuntu, Helvetica, Arial, sans-serif" font-size="12" font-weight="400" fill="#9198a1" text-anchor="start">AI providers</text>
<text x="806" y="136" font-family="-apple-system, 'Segoe UI', Ubuntu, Helvetica, Arial, sans-serif" font-size="13" font-weight="600" fill="#f0f6fc" text-anchor="end">3</text>
<text x="512" y="160" font-family="-apple-system, 'Segoe UI', Ubuntu, Helvetica, Arial, sans-serif" font-size="12" font-weight="400" fill="#9198a1" text-anchor="start">Unknown commits</text>
<text x="806" y="160" font-family="-apple-system, 'Segoe UI', Ubuntu, Helvetica, Arial, sans-serif" font-size="13" font-weight="600" fill="#f0f6fc" text-anchor="end">5</text>
<text x="24" y="208" font-family="-apple-system, 'Segoe UI', Ubuntu, Helvetica, Arial, sans-serif" font-size="12" font-weight="600" fill="#9198a1" text-anchor="start" letter-spacing="0.2">Attributed commits by provider</text>
<text x="806" y="208" font-family="-apple-system, 'Segoe UI', Ubuntu, Helvetica, Arial, sans-serif" font-size="11" font-weight="400" fill="#9198a1" text-anchor="end">% of 54 AI-attributed commits</text>
<rect x="24" y="228" width="20" height="20" rx="4" fill="#3C231B"/>
<path d="m4.7144 15.9555 4.7174-2.6471.079-.2307-.079-.1275h-.2307l-.7893-.0486-2.6956-.0729-2.3375-.0971-2.2646-.1214-.5707-.1215-.5343-.7042.0546-.3522.4797-.3218.686.0608 1.5179.1032 2.2767.1578 1.6514.0972 2.4468.255h.3886l.0546-.1579-.1336-.0971-.1032-.0972L6.973 9.8356l-2.55-1.6879-1.3356-.9714-.7225-.4918-.3643-.4614-.1578-1.0078.6557-.7225.8803.0607.2246.0607.8925.686 1.9064 1.4754 2.4893 1.8336.3643.3035.1457-.1032.0182-.0728-.164-.2733-1.3539-2.4467-1.445-2.4893-.6435-1.032-.17-.6194c-.0607-.255-.1032-.4674-.1032-.7285L6.287.1335 6.6997 0l.9957.1336.419.3642.6192 1.4147 1.0018 2.2282 1.5543 3.0296.4553.8985.2429.8318.091.255h.1579v-.1457l.1275-1.706.2368-2.0947.2307-2.6957.0789-.7589.3764-.9107.7468-.4918.5828.2793.4797.686-.0668.4433-.2853 1.8517-.5586 2.9021-.3643 1.9429h.2125l.2429-.2429.9835-1.3053 1.6514-2.0643.7286-.8196.85-.9046.5464-.4311h1.0321l.759 1.1293-.34 1.1657-1.0625 1.3478-.8804 1.1414-1.2628 1.7-.7893 1.36.0729.1093.1882-.0183 2.8535-.607 1.5421-.2794 1.8396-.3157.8318.3886.091.3946-.3278.8075-1.967.4857-2.3072.4614-3.4364.8136-.0425.0304.0486.0607 1.5482.1457.6618.0364h1.621l3.0175.2247.7892.522.4736.6376-.079.4857-1.2142.6193-1.6393-.3886-3.825-.9107-1.3113-.3279h-.1822v.1093l1.0929 1.0686 2.0035 1.8092 2.5075 2.3314.1275.5768-.3218.4554-.34-.0486-2.2039-1.6575-.85-.7468-1.9246-1.621h-.1275v.17l.4432.6496 2.3436 3.5214.1214 1.0807-.17.3521-.6071.2125-.6679-.1214-1.3721-1.9246L14.38 17.959l-1.1414-1.9428-.1397.079-.674 7.2552-.3156.3703-.7286.2793-.6071-.4614-.3218-.7468.3218-1.4753.3886-1.9246.3157-1.53.2853-1.9004.17-.6314-.0121-.0425-.1397.0182-1.4328 1.9672-2.1796 2.9446-1.7243 1.8456-.4128.164-.7164-.3704.0667-.6618.4008-.5889 2.386-3.0357 1.4389-1.882.929-1.0868-.0062-.1579h-.0546l-6.3385 4.1164-1.1293.1457-.4857-.4554.0608-.7467.2307-.2429 1.9064-1.3114Z" fill="#E2A28D" transform="translate(27,231) scale(0.583333)"/>
<text x="52" y="244" font-family="-apple-system, 'Segoe UI', Ubuntu, Helvetica, Arial, sans-serif" font-size="13" font-weight="400" fill="#f0f6fc" text-anchor="start">Claude</text>
<rect x="184" y="232" width="500" height="7" rx="2" fill="#21262d"/>
<rect x="184" y="232" width="500" height="7" rx="2" fill="#E2A28D"/>
<text x="806" y="244" font-family="-apple-system, 'Segoe UI', Ubuntu, Helvetica, Arial, sans-serif" font-size="13" text-anchor="end"><tspan fill="#f0f6fc" font-weight="600">30</tspan><tspan fill="#9198a1" font-weight="400"> · 56%</tspan></text>
<rect x="24" y="256" width="20" height="20" rx="4" fill="#161b22"/>
<text x="34" y="270" font-family="-apple-system, 'Segoe UI', Ubuntu, Helvetica, Arial, sans-serif" font-size="11" font-weight="600" fill="#9198a1" text-anchor="middle">O</text>
<text x="52" y="272" font-family="-apple-system, 'Segoe UI', Ubuntu, Helvetica, Arial, sans-serif" font-size="13" font-weight="400" fill="#f0f6fc" text-anchor="start">OpenAI</text>
<rect x="184" y="260" width="500" height="7" rx="2" fill="#21262d"/>
<rect x="184" y="260" width="300" height="7" rx="2" fill="#4493f8"/>
<text x="806" y="272" font-family="-apple-system, 'Segoe UI', Ubuntu, Helvetica, Arial, sans-serif" font-size="13" text-anchor="end"><tspan fill="#f0f6fc" font-weight="600">18</tspan><tspan fill="#9198a1" font-weight="400"> · 33%</tspan></text>
<rect x="24" y="284" width="20" height="20" rx="4" fill="#2B203C"/>
<path d="M11.04 19.32Q12 21.51 12 24q0-2.49.93-4.68.96-2.19 2.58-3.81t3.81-2.55Q21.51 12 24 12q-2.49 0-4.68-.93a12.3 12.3 0 0 1-3.81-2.58 12.3 12.3 0 0 1-2.58-3.81Q12 2.49 12 0q0 2.49-.96 4.68-.93 2.19-2.55 3.81a12.3 12.3 0 0 1-3.81 2.58Q2.49 12 0 12q2.49 0 4.68.96 2.19.93 3.81 2.55t2.55 3.81" fill="#8E75B2" transform="translate(27,287) scale(0.583333)"/>
<text x="52" y="300" font-family="-apple-system, 'Segoe UI', Ubuntu, Helvetica, Arial, sans-serif" font-size="13" font-weight="400" fill="#f0f6fc" text-anchor="start">Gemini</text>
<rect x="184" y="288" width="500" height="7" rx="2" fill="#21262d"/>
<rect x="184" y="288" width="100" height="7" rx="2" fill="#8E75B2"/>
<text x="806" y="300" font-family="-apple-system, 'Segoe UI', Ubuntu, Helvetica, Arial, sans-serif" font-size="13" text-anchor="end"><tspan fill="#f0f6fc" font-weight="600">6</tspan><tspan fill="#9198a1" font-weight="400"> · 11%</tspan></text>
<rect x="24" y="328" width="782" height="104" rx="6" fill="#161b22"/>
<text x="40" y="344" font-family="-apple-system, 'Segoe UI', Ubuntu, Helvetica, Arial, sans-serif" font-size="12" font-weight="600" fill="#9198a1" text-anchor="start" letter-spacing="0.2">Evidence (all records: 61)</text>
<rect x="40" y="364" width="711" height="8" rx="2" fill="#58a6ff"/>
<rect x="753" y="364" width="37" height="8" rx="2" fill="#6e7681"/>
<rect x="40" y="385" width="8" height="8" rx="1" fill="#58a6ff"/>
<text x="52" y="392" font-family="-apple-system, 'Segoe UI', Ubuntu, Helvetica, Arial, sans-serif" font-size="11" font-weight="400" fill="#f0f6fc" text-anchor="start">declared 58</text>
<rect x="127" y="385" width="8" height="8" rx="1" fill="#6e7681"/>
<text x="139" y="392" font-family="-apple-system, 'Segoe UI', Ubuntu, Helvetica, Arial, sans-serif" font-size="11" font-weight="400" fill="#f0f6fc" text-anchor="start">unknown 3</text>
<rect x="40" y="409" width="8" height="8" rx="1" fill="#9198a1"/>
<text x="52" y="416" font-family="-apple-system, 'Segoe UI', Ubuntu, Helvetica, Arial, sans-serif" font-size="11" font-weight="400" fill="#9198a1" text-anchor="start">All activity explicitly publishable</text>
<line x1="24" y1="448" x2="806" y2="448" stroke="#3d444d"/>
<text x="24" y="472" font-family="-apple-system, 'Segoe UI', Ubuntu, Helvetica, Arial, sans-serif" font-size="11" font-weight="400" fill="#9198a1" text-anchor="start">Generated 2026-07-14 · aiprofile</text>
<text x="24" y="488" font-family="-apple-system, 'Segoe UI', Ubuntu, Helvetica, Arial, sans-serif" font-size="11" font-weight="400" fill="#9198a1" text-anchor="start">One commit may include several AI actor presences (one per provider/tool).</text>
</svg>
