<svg xmlns="http://www.w3.org/2000/svg" width="830" height="180" viewBox="0 0 830 180" role="img" aria-label="ai-profile: privacy-first AI collaboration analytics from your git history">
<rect x="0.5" y="0.5" width="829" height="179" rx="10" fill="#0d1117" stroke="#3d444d"/>
<text x="52" y="84" font-family="-apple-system, 'Segoe UI', Ubuntu, Helvetica, Arial, sans-serif" font-size="38" font-weight="700" fill="#f0f6fc">ai-profile</text>
<text x="54" y="114" font-family="-apple-system, 'Segoe UI', Ubuntu, Helvetica, Arial, sans-serif" font-size="15" fill="#9198a1">Prove your AI collaboration. Privately.</text>
<rect x="54" y="130" width="8" height="8" rx="2" fill="#E2A28D"/>
<rect x="66" y="130" width="8" height="8" rx="2" fill="#8E75B2"/>
<rect x="78" y="130" width="8" height="8" rx="2" fill="#4493f8"/>
<text x="94" y="138" font-family="-apple-system, 'Segoe UI', Ubuntu, Helvetica, Arial, sans-serif" font-size="11" fill="#9198a1">explicit git provenance - local - never inferred</text>
<polygon points="560,50.5 575,58 560,65.5 545,58" fill="#21262d"/>
<polygon points="545,58 560,65.5 545,73 530,65.5" fill="#21262d"/>
<polygon points="575,58 590,65.5 575,73 560,65.5" fill="#21262d"/>
<polygon points="530,65.5 545,73 530,80.5 515,73" fill="#21262d"/>
<polygon points="560,65.5 575,73 560,80.5 545,73" fill="#21262d"/>
<polygon points="575,73 590,80.5 590,70.5 575,63" fill="#715d8e"/>
<polygon points="605,73 590,80.5 590,70.5 605,63" fill="#8E75B2"/>
<polygon points="590,55.5 605,63 590,70.5 575,63" fill="#B79FDB"/>
<polygon points="515,73 530,80.5 515,88 500,80.5" fill="#21262d"/>
<polygon points="530,80.5 545,88 545,74 530,66.5" fill="#3675c6"/>
<polygon points="560,80.5 545,88 545,74 560,66.5" fill="#4493f8"/>
<polygon points="545,59 560,66.5 545,74 530,66.5" fill="#58a6ff"/>
<polygon points="575,73 590,80.5 575,88 560,80.5" fill="#21262d"/>
<polygon points="605,73 620,80.5 605,88 590,80.5" fill="#21262d"/>
<polygon points="530,80.5 545,88 530,95.5 515,88" fill="#21262d"/>
<polygon points="560,80.5 575,88 560,95.5 545,88" fill="#21262d"/>
<polygon points="575,88 590,95.5 590,65.5 575,58" fill="#b48170"/>
<polygon points="605,88 590,95.5 590,65.5 605,58" fill="#E2A28D"/>
<polygon points="590,50.5 605,58 590,65.5 575,58" fill="#D97757"/>
<polygon points="620,80.5 635,88 620,95.5 605,88" fill="#21262d"/>
<polygon points="545,88 560,95.5 545,103 530,95.5" fill="#21262d"/>
<polygon points="575,88 590,95.5 575,103 560,95.5" fill="#21262d"/>
<polygon points="605,88 620,95.5 605,103 590,95.5" fill="#21262d"/>
<polygon points="620,95.5 635,103 635,81 620,73.5" fill="#b48170"/>
<polygon points="650,95.5 635,103 635,81 650,73.5" fill="#E2A28D"/>
<polygon points="635,66 650,73.5 635,81 620,73.5" fill="#D97757"/>
<polygon points="560,95.5 575,103 560,110.5 545,103" fill="#21262d"/>
<polygon points="590,95.5 605,103 590,110.5 575,103" fill="#21262d"/>
<polygon points="620,95.5 635,103 620,110.5 605,103" fill="#21262d"/>
<polygon points="650,95.5 665,103 650,110.5 635,103" fill="#21262d"/>
<polygon points="560,110.5 575,118 575,100 560,92.5" fill="#3675c6"/>
<polygon points="590,110.5 575,118 575,100 590,92.5" fill="#4493f8"/>
<polygon points="575,85 590,92.5 575,100 560,92.5" fill="#58a6ff"/>
<polygon points="605,103 620,110.5 605,118 590,110.5" fill="#21262d"/>
<polygon points="635,103 650,110.5 635,118 620,110.5" fill="#21262d"/>
<polygon points="665,103 680,110.5 665,118 650,110.5" fill="#21262d"/>
<polygon points="590,110.5 605,118 590,125.5 575,118" fill="#21262d"/>
<polygon points="605,118 620,125.5 620,89.5 605,82" fill="#b48170"/>
<polygon points="635,118 620,125.5 620,89.5 635,82" fill="#E2A28D"/>
<polygon points="620,74.5 635,82 620,89.5 605,82" fill="#D97757"/>
<polygon points="635,118 650,125.5 650,111.5 635,104" fill="#715d8e"/>
<polygon points="665,118 650,125.5 650,111.5 665,104" fill="#8E75B2"/>
<polygon points="650,96.5 665,104 650,111.5 635,104" fill="#B79FDB"/>
<polygon points="680,110.5 695,118 680,125.5 665,118" fill="#21262d"/>
<polygon points="605,118 620,125.5 605,133 590,125.5" fill="#21262d"/>
<polygon points="635,118 650,125.5 635,133 620,125.5" fill="#21262d"/>
<polygon points="665,118 680,125.5 665,133 650,125.5" fill="#21262d"/>
<polygon points="620,125.5 635,133 620,140.5 605,133" fill="#21262d"/>
<polygon points="650,125.5 665,133 650,140.5 635,133" fill="#21262d"/>
<polygon points="635,133 650,140.5 635,148 620,140.5" fill="#21262d"/>
</svg>
