<svg xmlns="http://www.w3.org/2000/svg" width="830" height="612" viewBox="0 0 830 612" role="img" aria-labelledby="aiprofileSummaryTitle aiprofileSummaryDesc">
<title id="aiprofileSummaryTitle">AI Collaboration Summary — All time</title>
<desc id="aiprofileSummaryDesc">375 AI-attributed commits, 463 AI actor presences across 58 active AI days (author dates), 7 AI providers. Generated 2026-07-14.</desc>
<rect x="0.5" y="0.5" width="829" height="611" rx="8" fill="#0d1117" stroke="#3d444d" stroke-width="1"/>
<rect x="24" y="24" width="16" height="16" rx="3" fill="#0d1117" stroke="#4493f8" stroke-width="1"/>
<rect x="29" y="29" width="6" height="6" rx="1" fill="#4493f8"/>
<text x="48" y="36" font-family="-apple-system, 'Segoe UI', Ubuntu, Helvetica, Arial, sans-serif" font-size="16" font-weight="600" fill="#f0f6fc" text-anchor="start">AI Collaboration Summary</text>
<text x="806" y="36" font-family="-apple-system, 'Segoe UI', Ubuntu, Helvetica, Arial, sans-serif" font-size="12" font-weight="400" fill="#9198a1" text-anchor="end">All time</text>
<line x1="24" y1="56" x2="806" y2="56" stroke="#3d444d"/>
<text x="24" y="112" font-family="-apple-system, 'Segoe UI', Ubuntu, Helvetica, Arial, sans-serif" font-size="38" font-weight="700" fill="#4493f8" text-anchor="start">375</text>
<text x="24" y="140" font-family="-apple-system, 'Segoe UI', Ubuntu, Helvetica, Arial, sans-serif" font-size="12" font-weight="400" fill="#9198a1" text-anchor="start">AI-attributed commits</text>
<text x="24" y="160" font-family="-apple-system, 'Segoe UI', Ubuntu, Helvetica, Arial, sans-serif" font-size="12" font-weight="600" fill="#f0f6fc" text-anchor="start">72% of 520 unique commits scanned</text>
<rect x="24" y="172" width="360" height="7" rx="2" fill="#21262d"/>
<rect x="24" y="172" width="260" height="7" rx="2" fill="#4493f8"/>
<text x="512" y="88" font-family="-apple-system, 'Segoe UI', Ubuntu, Helvetica, Arial, sans-serif" font-size="12" font-weight="400" fill="#9198a1" text-anchor="start">AI actor presences</text>
<text x="806" y="88" font-family="-apple-system, 'Segoe UI', Ubuntu, Helvetica, Arial, sans-serif" font-size="13" font-weight="600" fill="#f0f6fc" text-anchor="end">463</text>
<text x="512" y="112" font-family="-apple-system, 'Segoe UI', Ubuntu, Helvetica, Arial, sans-serif" font-size="12" font-weight="400" fill="#9198a1" text-anchor="start">Active AI days (author dates)</text>
<text x="806" y="112" font-family="-apple-system, 'Segoe UI', Ubuntu, Helvetica, Arial, sans-serif" font-size="13" font-weight="600" fill="#f0f6fc" text-anchor="end">58</text>
<text x="512" y="136" font-family="-apple-system, 'Segoe UI', Ubuntu, Helvetica, Arial, sans-serif" font-size="12" font-weight="400" fill="#9198a1" text-anchor="start">AI providers</text>
<text x="806" y="136" font-family="-apple-system, 'Segoe UI', Ubuntu, Helvetica, Arial, sans-serif" font-size="13" font-weight="600" fill="#f0f6fc" text-anchor="end">7</text>
<text x="512" y="160" font-family="-apple-system, 'Segoe UI', Ubuntu, Helvetica, Arial, sans-serif" font-size="12" font-weight="400" fill="#9198a1" text-anchor="start">Unknown commits</text>
<text x="806" y="160" font-family="-apple-system, 'Segoe UI', Ubuntu, Helvetica, Arial, sans-serif" font-size="13" font-weight="600" fill="#f0f6fc" text-anchor="end">100</text>
<text x="24" y="208" font-family="-apple-system, 'Segoe UI', Ubuntu, Helvetica, Arial, sans-serif" font-size="12" font-weight="600" fill="#9198a1" text-anchor="start" letter-spacing="0.2">Attributed commits by provider</text>
<text x="806" y="208" font-family="-apple-system, 'Segoe UI', Ubuntu, Helvetica, Arial, sans-serif" font-size="11" font-weight="400" fill="#9198a1" text-anchor="end">% of 375 AI-attributed commits</text>
<rect x="24" y="228" width="20" height="20" rx="4" fill="#3C231B"/>
<path d="m4.7144 15.9555 4.7174-2.6471.079-.2307-.079-.1275h-.2307l-.7893-.0486-2.6956-.0729-2.3375-.0971-2.2646-.1214-.5707-.1215-.5343-.7042.0546-.3522.4797-.3218.686.0608 1.5179.1032 2.2767.1578 1.6514.0972 2.4468.255h.3886l.0546-.1579-.1336-.0971-.1032-.0972L6.973 9.8356l-2.55-1.6879-1.3356-.9714-.7225-.4918-.3643-.4614-.1578-1.0078.6557-.7225.8803.0607.2246.0607.8925.686 1.9064 1.4754 2.4893 1.8336.3643.3035.1457-.1032.0182-.0728-.164-.2733-1.3539-2.4467-1.445-2.4893-.6435-1.032-.17-.6194c-.0607-.255-.1032-.4674-.1032-.7285L6.287.1335 6.6997 0l.9957.1336.419.3642.6192 1.4147 1.0018 2.2282 1.5543 3.0296.4553.8985.2429.8318.091.255h.1579v-.1457l.1275-1.706.2368-2.0947.2307-2.6957.0789-.7589.3764-.9107.7468-.4918.5828.2793.4797.686-.0668.4433-.2853 1.8517-.5586 2.9021-.3643 1.9429h.2125l.2429-.2429.9835-1.3053 1.6514-2.0643.7286-.8196.85-.9046.5464-.4311h1.0321l.759 1.1293-.34 1.1657-1.0625 1.3478-.8804 1.1414-1.2628 1.7-.7893 1.36.0729.1093.1882-.0183 2.8535-.607 1.5421-.2794 1.8396-.3157.8318.3886.091.3946-.3278.8075-1.967.4857-2.3072.4614-3.4364.8136-.0425.0304.0486.0607 1.5482.1457.6618.0364h1.621l3.0175.2247.7892.522.4736.6376-.079.4857-1.2142.6193-1.6393-.3886-3.825-.9107-1.3113-.3279h-.1822v.1093l1.0929 1.0686 2.0035 1.8092 2.5075 2.3314.1275.5768-.3218.4554-.34-.0486-2.2039-1.6575-.85-.7468-1.9246-1.621h-.1275v.17l.4432.6496 2.3436 3.5214.1214 1.0807-.17.3521-.6071.2125-.6679-.1214-1.3721-1.9246L14.38 17.959l-1.1414-1.9428-.1397.079-.674 7.2552-.3156.3703-.7286.2793-.6071-.4614-.3218-.7468.3218-1.4753.3886-1.9246.3157-1.53.2853-1.9004.17-.6314-.0121-.0425-.1397.0182-1.4328 1.9672-2.1796 2.9446-1.7243 1.8456-.4128.164-.7164-.3704.0667-.6618.4008-.5889 2.386-3.0357 1.4389-1.882.929-1.0868-.0062-.1579h-.0546l-6.3385 4.1164-1.1293.1457-.4857-.4554.0608-.7467.2307-.2429 1.9064-1.3114Z" fill="#E2A28D" transform="translate(27,231) scale(0.583333)"/>
<text x="52" y="244" font-family="-apple-system, 'Segoe UI', Ubuntu, Helvetica, Arial, sans-serif" font-size="13" font-weight="400" fill="#f0f6fc" text-anchor="start">Claude</text>
<rect x="184" y="232" width="500" height="7" rx="2" fill="#21262d"/>
<rect x="184" y="232" width="500" height="7" rx="2" fill="#E2A28D"/>
<text x="806" y="244" font-family="-apple-system, 'Segoe UI', Ubuntu, Helvetica, Arial, sans-serif" font-size="13" text-anchor="end"><tspan fill="#f0f6fc" font-weight="600">120</tspan><tspan fill="#9198a1" font-weight="400"> · 32%</tspan></text>
<rect x="24" y="256" width="20" height="20" rx="4" fill="#161b22"/>
<text x="34" y="270" font-family="-apple-system, 'Segoe UI', Ubuntu, Helvetica, Arial, sans-serif" font-size="11" font-weight="600" fill="#9198a1" text-anchor="middle">O</text>
<text x="52" y="272" font-family="-apple-system, 'Segoe UI', Ubuntu, Helvetica, Arial, sans-serif" font-size="13" font-weight="400" fill="#f0f6fc" text-anchor="start">OpenAI</text>
<rect x="184" y="260" width="500" height="7" rx="2" fill="#21262d"/>
<rect x="184" y="260" width="396" height="7" rx="2" fill="#4493f8"/>
<text x="806" y="272" font-family="-apple-system, 'Segoe UI', Ubuntu, Helvetica, Arial, sans-serif" font-size="13" text-anchor="end"><tspan fill="#f0f6fc" font-weight="600">95</tspan><tspan fill="#9198a1" font-weight="400"> · 25%</tspan></text>
<rect x="24" y="284" width="20" height="20" rx="4" fill="#2B203C"/>
<path d="M11.04 19.32Q12 21.51 12 24q0-2.49.93-4.68.96-2.19 2.58-3.81t3.81-2.55Q21.51 12 24 12q-2.49 0-4.68-.93a12.3 12.3 0 0 1-3.81-2.58 12.3 12.3 0 0 1-2.58-3.81Q12 2.49 12 0q0 2.49-.96 4.68-.93 2.19-2.55 3.81a12.3 12.3 0 0 1-3.81 2.58Q2.49 12 0 12q2.49 0 4.68.96 2.19.93 3.81 2.55t2.55 3.81" fill="#8E75B2" transform="translate(27,287) scale(0.583333)"/>
<text x="52" y="300" font-family="-apple-system, 'Segoe UI', Ubuntu, Helvetica, Arial, sans-serif" font-size="13" font-weight="400" fill="#f0f6fc" text-anchor="start">Gemini</text>
<rect x="184" y="288" width="500" height="7" rx="2" fill="#21262d"/>
<rect x="184" y="288" width="250" height="7" rx="2" fill="#8E75B2"/>
<text x="806" y="300" font-family="-apple-system, 'Segoe UI', Ubuntu, Helvetica, Arial, sans-serif" font-size="13" text-anchor="end"><tspan fill="#f0f6fc" font-weight="600">60</tspan><tspan fill="#9198a1" font-weight="400"> · 16%</tspan></text>
<rect x="24" y="312" width="20" height="20" rx="4" fill="#2E3138"/>
<path d="M23.922 16.997C23.061 18.492 18.063 22.02 12 22.02 5.937 22.02.939 18.492.078 16.997A.641.641 0 0 1 0 16.741v-2.869a.883.883 0 0 1 .053-.22c.372-.935 1.347-2.292 2.605-2.656.167-.429.414-1.055.644-1.517a10.098 10.098 0 0 1-.052-1.086c0-1.331.282-2.499 1.132-3.368.397-.406.89-.717 1.474-.952C7.255 2.937 9.248 1.98 11.978 1.98c2.731 0 4.767.957 6.166 2.093.584.235 1.077.546 1.474.952.85.869 1.132 2.037 1.132 3.368 0 .368-.014.733-.052 1.086.23.462.477 1.088.644 1.517 1.258.364 2.233 1.721 2.605 2.656a.841.841 0 0 1 .053.22v2.869a.641.641 0 0 1-.078.256Zm-11.75-5.992h-.344a4.359 4.359 0 0 1-.355.508c-.77.947-1.918 1.492-3.508 1.492-1.725 0-2.989-.359-3.782-1.259a2.137 2.137 0 0 1-.085-.104L4 11.746v6.585c1.435.779 4.514 2.179 8 2.179 3.486 0 6.565-1.4 8-2.179v-6.585l-.098-.104s-.033.045-.085.104c-.793.9-2.057 1.259-3.782 1.259-1.59 0-2.738-.545-3.508-1.492a4.359 4.359 0 0 1-.355-.508Zm2.328 3.25c.549 0 1 .451 1 1v2c0 .549-.451 1-1 1-.549 0-1-.451-1-1v-2c0-.549.451-1 1-1Zm-5 0c.549 0 1 .451 1 1v2c0 .549-.451 1-1 1-.549 0-1-.451-1-1v-2c0-.549.451-1 1-1Zm3.313-6.185c.136 1.057.403 1.913.878 2.497.442.544 1.134.938 2.344.938 1.573 0 2.292-.337 2.657-.751.384-.435.558-1.15.558-2.361 0-1.14-.243-1.847-.705-2.319-.477-.488-1.319-.862-2.824-1.025-1.487-.161-2.192.138-2.533.529-.269.307-.437.808-.438 1.578v.021c0 .265.021.562.063.893Zm-1.626 0c.042-.331.063-.628.063-.894v-.02c-.001-.77-.169-1.271-.438-1.578-.341-.391-1.046-.69-2.533-.529-1.505.163-2.347.537-2.824 1.025-.462.472-.705 1.179-.705 2.319 0 1.211.175 1.926.558 2.361.365.414 1.084.751 2.657.751 1.21 0 1.902-.394 2.344-.938.475-.584.742-1.44.878-2.497Z" fill="#E3E5E8" transform="translate(27,315) scale(0.583333)"/>
<text x="52" y="328" font-family="-apple-system, 'Segoe UI', Ubuntu, Helvetica, Arial, sans-serif" font-size="13" font-weight="400" fill="#f0f6fc" text-anchor="start">Copilot</text>
<rect x="184" y="316" width="500" height="7" rx="2" fill="#21262d"/>
<rect x="184" y="316" width="167" height="7" rx="2" fill="#E3E5E8"/>
<text x="806" y="328" font-family="-apple-system, 'Segoe UI', Ubuntu, Helvetica, Arial, sans-serif" font-size="13" text-anchor="end"><tspan fill="#f0f6fc" font-weight="600">40</tspan><tspan fill="#9198a1" font-weight="400"> · 11%</tspan></text>
<rect x="24" y="340" width="20" height="20" rx="4" fill="#33302E"/>
<path d="M11.503.131 1.891 5.678a.84.84 0 0 0-.42.726v11.188c0 .3.162.575.42.724l9.609 5.55a1 1 0 0 0 .998 0l9.61-5.55a.84.84 0 0 0 .42-.724V6.404a.84.84 0 0 0-.42-.726L12.497.131a1.01 1.01 0 0 0-.996 0M2.657 6.338h18.55c.263 0 .43.287.297.515L12.23 22.918c-.062.107-.229.064-.229-.06V12.335a.59.59 0 0 0-.295-.51l-9.11-5.257c-.109-.063-.064-.23.061-.23" fill="#E7E6E4" transform="translate(27,343) scale(0.583333)"/>
<text x="52" y="356" font-family="-apple-system, 'Segoe UI', Ubuntu, Helvetica, Arial, sans-serif" font-size="13" font-weight="400" fill="#f0f6fc" text-anchor="start">Cursor</text>
<rect x="184" y="344" width="500" height="7" rx="2" fill="#21262d"/>
<rect x="184" y="344" width="104" height="7" rx="2" fill="#E7E6E4"/>
<text x="806" y="356" font-family="-apple-system, 'Segoe UI', Ubuntu, Helvetica, Arial, sans-serif" font-size="13" text-anchor="end"><tspan fill="#f0f6fc" font-weight="600">25</tspan><tspan fill="#9198a1" font-weight="400"> · 7%</tspan></text>
<rect x="24" y="368" width="20" height="20" rx="4" fill="#161b22"/>
<text x="34" y="382" font-family="-apple-system, 'Segoe UI', Ubuntu, Helvetica, Arial, sans-serif" font-size="11" font-weight="600" fill="#9198a1" text-anchor="middle">?</text>
<text x="52" y="384" font-family="-apple-system, 'Segoe UI', Ubuntu, Helvetica, Arial, sans-serif" font-size="13" font-weight="400" fill="#f0f6fc" text-anchor="start">Unrecognized</text>
<rect x="184" y="372" width="500" height="7" rx="2" fill="#21262d"/>
<rect x="184" y="372" width="83" height="7" rx="2" fill="#4493f8"/>
<text x="806" y="384" font-family="-apple-system, 'Segoe UI', Ubuntu, Helvetica, Arial, sans-serif" font-size="13" text-anchor="end"><tspan fill="#f0f6fc" font-weight="600">20</tspan><tspan fill="#9198a1" font-weight="400"> · 5%</tspan></text>
<text x="24" y="408" font-family="-apple-system, 'Segoe UI', Ubuntu, Helvetica, Arial, sans-serif" font-size="12" font-weight="400" fill="#9198a1" text-anchor="start">+2 more</text>
<rect x="24" y="436" width="782" height="104" rx="6" fill="#161b22"/>
<text x="40" y="452" font-family="-apple-system, 'Segoe UI', Ubuntu, Helvetica, Arial, sans-serif" font-size="12" font-weight="600" fill="#9198a1" text-anchor="start" letter-spacing="0.2">Evidence (all records: 463)</text>
<rect x="40" y="472" width="19" height="8" rx="2" fill="#a5d6ff"/>
<rect x="61" y="472" width="643" height="8" rx="2" fill="#58a6ff"/>
<rect x="706" y="472" width="8" height="8" rx="2" fill="#1f6feb"/>
<rect x="716" y="472" width="74" height="8" rx="2" fill="#6e7681"/>
<rect x="40" y="493" width="8" height="8" rx="1" fill="#a5d6ff"/>
<text x="52" y="500" font-family="-apple-system, 'Segoe UI', Ubuntu, Helvetica, Arial, sans-serif" font-size="11" font-weight="400" fill="#f0f6fc" text-anchor="start">verified 12</text>
<rect x="122" y="493" width="8" height="8" rx="1" fill="#58a6ff"/>
<text x="134" y="500" font-family="-apple-system, 'Segoe UI', Ubuntu, Helvetica, Arial, sans-serif" font-size="11" font-weight="400" fill="#f0f6fc" text-anchor="start">declared 400</text>
<rect x="215" y="493" width="8" height="8" rx="1" fill="#1f6feb"/>
<text x="227" y="500" font-family="-apple-system, 'Segoe UI', Ubuntu, Helvetica, Arial, sans-serif" font-size="11" font-weight="400" fill="#f0f6fc" text-anchor="start">inferred 5</text>
<rect x="293" y="493" width="8" height="8" rx="1" fill="#6e7681"/>
<text x="305" y="500" font-family="-apple-system, 'Segoe UI', Ubuntu, Helvetica, Arial, sans-serif" font-size="11" font-weight="400" fill="#f0f6fc" text-anchor="start">unknown 46</text>
<rect x="40" y="517" width="8" height="8" rx="1" fill="#9198a1"/>
<text x="52" y="524" font-family="-apple-system, 'Segoe UI', Ubuntu, Helvetica, Arial, sans-serif" font-size="11" font-weight="400" fill="#9198a1" text-anchor="start">Includes aggregate-only activity (repository identity withheld) — publishable 200 · aggregate-only 320</text>
<line x1="24" y1="556" x2="806" y2="556" stroke="#3d444d"/>
<text x="24" y="580" font-family="-apple-system, 'Segoe UI', Ubuntu, Helvetica, Arial, sans-serif" font-size="11" font-weight="400" fill="#9198a1" text-anchor="start">Generated 2026-07-14 · aiprofile</text>
<text x="24" y="596" font-family="-apple-system, 'Segoe UI', Ubuntu, Helvetica, Arial, sans-serif" font-size="11" font-weight="400" fill="#9198a1" text-anchor="start">One commit may include several AI actor presences (one per provider/tool).</text>
</svg>
